<svg width="16" height="16" viewBox="0 0 16 16" fill="none" xmlns="http://www.w3.org/2000/svg">
<path d="M5.33337 1.3335V3.3335" stroke="currentColor" stroke-width="1.5" stroke-miterlimit="10" stroke-linecap="round" stroke-linejoin="round"/>
<path d="M10.6666 1.3335V3.3335" stroke="currentColor" stroke-width="1.5" stroke-miterlimit="10" stroke-linecap="round" stroke-linejoin="round"/>
<path d="M2.33337 6.06006H13.6667" stroke="currentColor" stroke-miterlimit="10" stroke-linecap="round" stroke-linejoin="round"/>
<path d="M12 15.3333C13.4728 15.3333 14.6667 14.1394 14.6667 12.6667C14.6667 11.1939 13.4728 10 12 10C10.5273 10 9.33337 11.1939 9.33337 12.6667C9.33337 14.1394 10.5273 15.3333 12 15.3333Z" stroke="currentColor" stroke-miterlimit="10" stroke-linecap="round" stroke-linejoin="round"/>
<path d="M12.7133 13.4067L11.2999 12" stroke="currentColor" stroke-miterlimit="10" stroke-linecap="round" stroke-linejoin="round"/>
<path d="M12.7 12.0132L11.2866 13.4265" stroke="currentColor" stroke-miterlimit="10" stroke-linecap="round" stroke-linejoin="round"/>
<path d="M14 5.66683V10.9068C13.5133 10.3535 12.8 10.0002 12 10.0002C10.5267 10.0002 9.33333 11.1935 9.33333 12.6668C9.33333 13.1668 9.47333 13.6402 9.72 14.0402C9.86 14.2802 10.04 14.4935 10.2467 14.6668H5.33333C3 14.6668 2 13.3335 2 11.3335V5.66683C2 3.66683 3 2.3335 5.33333 2.3335H10.6667C13 2.3335 14 3.66683 14 5.66683Z" stroke="currentColor" stroke-miterlimit="10" stroke-linecap="round" stroke-linejoin="round"/>
<path d="M7.99703 9.13314H8.00302" stroke="currentColor" stroke-width="2" stroke-linecap="round" stroke-linejoin="round"/>
<path d="M5.5295 9.13314H5.53549" stroke="currentColor" stroke-width="2" stroke-linecap="round" stroke-linejoin="round"/>
<path d="M5.5295 11.1331H5.53549" stroke="currentColor" stroke-width="2" stroke-linecap="round" stroke-linejoin="round"/>
</svg>
