<svg width="16" height="16" viewBox="0 0 16 16" fill="none" xmlns="http://www.w3.org/2000/svg">
<path d="M5.33337 7.60005C5.33337 8.11338 5.73337 8.53338 6.22004 8.53338H7.22004C7.64671 8.53338 7.99337 8.16672 7.99337 7.72005C7.99337 7.23338 7.78004 7.06005 7.46671 6.94672L5.86671 6.38672C5.54671 6.27338 5.33337 6.10005 5.33337 5.61338C5.33337 5.16672 5.68004 4.80005 6.10671 4.80005H7.10671C7.60004 4.80672 8.00004 5.22005 8.00004 5.73338" stroke="currentColor" stroke-width="1.2" stroke-linecap="round" stroke-linejoin="round"/>
<path d="M6.66663 8.56665V9.05998" stroke="currentColor" stroke-width="1.2" stroke-linecap="round" stroke-linejoin="round"/>
<path d="M6.66663 4.27332V4.79332" stroke="currentColor" stroke-width="1.5" stroke-linecap="round" stroke-linejoin="round"/>
<path d="M6.66004 11.9867C9.60188 11.9867 11.9867 9.60188 11.9867 6.66004C11.9867 3.7182 9.60188 1.33337 6.66004 1.33337C3.7182 1.33337 1.33337 3.7182 1.33337 6.66004C1.33337 9.60188 3.7182 11.9867 6.66004 11.9867Z" stroke="currentColor" stroke-width="1.5" stroke-linecap="round" stroke-linejoin="round"/>
<path d="M8.65332 13.2533C9.25332 14.1 10.2333 14.6533 11.3533 14.6533C13.1733 14.6533 14.6533 13.1733 14.6533 11.3533C14.6533 10.2466 14.1067 9.26663 13.2733 8.66663" stroke="currentColor" stroke-width="1.5" stroke-linecap="round" stroke-linejoin="round"/>
</svg>
