<svg width="40" height="40" viewBox="0 0 40 40" fill="none" xmlns="http://www.w3.org/2000/svg">
<path d="M6.64062 9.92183C6.55469 10.0078 6.48438 10.1718 6.48438 10.2812C6.48438 10.4609 7.15625 13.1796 7.46094 14.2265L7.5625 14.5781L6.42969 14.8281C5.76562 14.9687 5.23438 15.125 5.14844 15.2031C5.00781 15.3281 5 15.5156 5 19.2109V23.0859L4.58594 23.2343C4.01562 23.4375 1.64062 24.3437 1.39062 24.4531C1.28125 24.5078 1.14844 24.6328 1.10156 24.7421C1.04688 24.8671 1.01562 25.75 1.01562 27.375C1.01562 29.7343 1.02344 29.8281 1.17969 30.0312L1.33594 30.2343H4.14844C6.85156 30.2343 6.96094 30.2265 7.10938 30.0781C7.30469 29.8828 7.3125 29.5234 7.11719 29.289L6.96875 29.1015L4.57812 29.0781L2.1875 29.0546L2.20312 27.2109L2.22656 25.3671L3.86719 24.75C14.0391 20.9296 26.8359 17.6171 37.3281 16.1093L37.8203 16.039L37.7734 16.4765C37.5547 18.4453 37.2344 19.6562 36.5859 20.9765C36.0625 22.0234 35.6484 22.5546 34.1406 24.1015C32.2422 26.0546 31.2656 27.3203 30.6719 28.5781L30.4453 29.0546L25.6797 29.0781L20.9219 29.1015L20.7734 29.289C20.5781 29.5234 20.5859 29.8515 20.7812 30.0625L20.9453 30.2343H26.0469C31.8516 30.2343 31.2656 30.3125 31.5547 29.4921C31.9453 28.375 33.1328 26.8125 35.1953 24.6953C35.9297 23.9375 36.6953 23.0937 36.8906 22.8125C37.6641 21.7187 38.3516 20.0546 38.6719 18.4921C38.8984 17.375 39.0312 15.625 38.9219 15.25C38.7656 14.7421 38.6562 14.7343 36.8516 15C34.8672 15.2968 32.7578 15.6562 31.4531 15.9062C30.6797 16.0625 30.3984 16.0859 30.2578 16.0234C30.1562 15.9765 28.8203 15.2109 27.2812 14.3203L24.4922 12.6953L23.9062 12.7187C23.5859 12.7265 22.2891 12.8281 21.0234 12.9296C19.7578 13.039 18.7188 13.1171 18.7031 13.1015C18.6953 13.0937 18.4844 12.4218 18.2344 11.6093C17.9844 10.7968 17.7109 10.0546 17.6328 9.95308L17.4922 9.76558H15.2812C13.2109 9.76558 13.0625 9.77339 12.9375 9.91401C12.8594 9.99214 12.7969 10.164 12.7969 10.2812C12.7891 10.4062 12.9922 11.2031 13.2344 12.0625C13.4766 12.914 13.6719 13.625 13.6562 13.6328C13.6406 13.6484 13.3906 13.6953 13.1016 13.7343L12.5781 13.8046L12.5 13.5234C12.1016 12.0625 11.3984 9.95308 11.2812 9.86714C11.1719 9.78901 10.625 9.76558 8.96875 9.76558C6.89844 9.76558 6.78906 9.77339 6.64062 9.92183ZM10.9531 12.4531C11.2031 13.2734 11.3984 13.9453 11.3828 13.9453C11.375 13.9531 10.8438 14.039 10.1953 14.1328C9.55469 14.2343 8.95312 14.3281 8.85938 14.3437C8.71094 14.3828 8.67188 14.2734 8.28125 12.7578C8.05469 11.8671 7.85156 11.0859 7.82812 11.0312C7.80469 10.9531 8.07812 10.9375 9.14844 10.9531L10.5 10.9765L10.9531 12.4531ZM17.1562 12.0781C17.3516 12.7031 17.5 13.2265 17.4922 13.2343C17.4766 13.2421 17.0234 13.2968 16.4844 13.3515C15.9453 13.3984 15.3672 13.4609 15.1875 13.4843L14.8672 13.5312L14.5312 12.3359C14.3516 11.6796 14.1875 11.0937 14.1641 11.039C14.1328 10.9609 14.3906 10.9375 15.4609 10.9375H16.7891L17.1562 12.0781ZM24.5781 14.1171C25.1875 14.4687 25.2031 14.4609 23.75 14.6875C18 15.6015 10.7109 17.1796 7.17188 18.289C6.63281 18.4531 6.16406 18.5937 6.14062 18.5937C6.11719 18.5937 6.09375 18.0312 6.09375 17.3515C6.09375 16.2343 6.10938 16.1015 6.23438 16.0625C6.60938 15.9531 8.48438 15.5937 9.72656 15.3906C12.9922 14.8593 17.1641 14.4062 23.125 13.914C23.5781 13.8828 23.9766 13.8437 24.0078 13.8359C24.0391 13.8359 24.2969 13.9609 24.5781 14.1171ZM27.6875 15.914L28.6016 16.4453L28.1875 16.539C27.9609 16.5937 27.0391 16.7968 26.1328 16.9921C20.6953 18.1796 14.5156 19.8828 8.71094 21.8046C7.29688 22.2734 6.125 22.6562 6.11719 22.6562C6.10156 22.6562 6.09375 22.0234 6.09375 21.25V19.8515L7.08594 19.539C10.4297 18.4843 16.25 17.164 21.7578 16.2109C25.0938 15.6328 26.4531 15.4062 26.6094 15.3984C26.7031 15.3906 27.1875 15.625 27.6875 15.914Z" fill="#E8604C"/>
<path d="M27.4922 20.7733C27.2812 20.9452 27.2422 21.414 27.4297 21.6015C27.789 21.9686 28.4375 21.7108 28.4375 21.203C28.4375 20.6952 27.8984 20.4452 27.4922 20.7733Z" fill="#E8604C"/>
<path d="M24.3437 21.4922C23.9219 21.8281 24.164 22.5 24.7109 22.5C25.3125 22.5 25.5 21.6641 24.9453 21.4141C24.6797 21.2891 24.5781 21.3047 24.3437 21.4922Z" fill="#E8604C"/>
<path d="M21.1017 22.3124C20.836 22.6562 20.9376 23.0546 21.3282 23.1874C21.7579 23.3437 22.1095 23.0858 22.1095 22.6249C22.1095 22.1327 21.4142 21.9218 21.1017 22.3124Z" fill="#E8604C"/>
<path d="M10.3125 29.1172C10.0469 29.2188 9.92188 29.4062 9.92188 29.6953C9.92188 30.1719 10.0859 30.2344 11.2969 30.2344C12.4531 30.2344 12.5781 30.1797 12.5781 29.6719C12.5781 29.1953 12.3906 29.1016 11.3359 29.0859C10.8359 29.0781 10.375 29.0859 10.3125 29.1172Z" fill="#E8604C"/>
<path d="M15.6484 29.1172C15.4375 29.1562 15.2344 29.4219 15.2344 29.6562C15.2344 29.75 15.3047 29.9141 15.3984 30.0312C15.5547 30.2344 15.5625 30.2344 16.6328 30.2344C17.8516 30.2344 17.9688 30.1875 17.9688 29.6719C17.9688 29.1875 17.7812 29.1016 16.7266 29.0859C16.2266 29.0859 15.7422 29.0938 15.6484 29.1172Z" fill="#E8604C"/>
</svg>
