<svg width="79" height="50" viewBox="0 0 79 50" fill="none" xmlns="http://www.w3.org/2000/svg">
<circle cx="25" cy="25" r="24.25" transform="rotate(-180 25 25)" stroke="#E8604C" stroke-width="1.5"/>
<path d="M78 25.75C78.4142 25.75 78.75 25.4142 78.75 25C78.75 24.5858 78.4142 24.25 78 24.25L78 25.75ZM20.4697 24.4697C20.1768 24.7626 20.1768 25.2374 20.4697 25.5303L25.2426 30.3033C25.5355 30.5962 26.0104 30.5962 26.3033 30.3033C26.5962 30.0104 26.5962 29.5355 26.3033 29.2426L22.0607 25L26.3033 20.7574C26.5962 20.4645 26.5962 19.9896 26.3033 19.6967C26.0104 19.4038 25.5355 19.4038 25.2426 19.6967L20.4697 24.4697ZM78 24.25L21 24.25L21 25.75L78 25.75L78 24.25Z" fill="currentColor"/>
</svg>
