<svg width="79" height="50" viewBox="0 0 79 50" fill="none" xmlns="http://www.w3.org/2000/svg">
<circle cx="25" cy="25" r="24.25" transform="matrix(1 0 0 -1 29 50)" stroke="#E8604C" stroke-width="1.5"/>
<path d="M1 25.75C0.585786 25.75 0.25 25.4142 0.25 25C0.25 24.5858 0.585786 24.25 1 24.25L1 25.75ZM58.5303 24.4697C58.8232 24.7626 58.8232 25.2374 58.5303 25.5303L53.7574 30.3033C53.4645 30.5962 52.9896 30.5962 52.6967 30.3033C52.4038 30.0104 52.4038 29.5355 52.6967 29.2426L56.9393 25L52.6967 20.7574C52.4038 20.4645 52.4038 19.9896 52.6967 19.6967C52.9896 19.4038 53.4645 19.4038 53.7574 19.6967L58.5303 24.4697ZM1 24.25L58 24.25L58 25.75L1 25.75L1 24.25Z" fill="currentColor"/>
</svg>
