<svg width="40" height="40" viewBox="0 0 40 40" fill="none" xmlns="http://www.w3.org/2000/svg">
<g clip-path="url(#clip0_260_877)">
<path d="M16.3278 1.16406C15.6325 1.39062 15.2263 1.63281 14.7185 2.14062C13.5388 3.32031 13.2731 4.96875 13.9685 6.77344C14.406 7.91406 15.7575 9.41406 17.2341 10.4062C18.2028 11.0625 19.6716 11.7969 19.9997 11.7969C20.3356 11.7969 21.7263 11.0937 22.781 10.3906C23.8903 9.64844 25.1247 8.41406 25.6403 7.53906C27.195 4.86719 26.2653 1.92969 23.6013 1.14062C22.6247 0.851562 21.2888 1.04687 20.4685 1.60156C20.2419 1.75 20.031 1.875 19.9997 1.875C19.9685 1.875 19.7575 1.75 19.531 1.60156C18.6872 1.03906 17.3044 0.843749 16.3278 1.16406ZM18.5466 2.5C18.7575 2.60156 19.1091 2.85156 19.3278 3.0625C19.8747 3.57812 20.1013 3.57812 20.6638 3.05469C21.2497 2.52344 21.7106 2.32031 22.4216 2.28125C23.1638 2.24219 23.7419 2.44531 24.2731 2.92969C25.3044 3.85156 25.4294 5.20312 24.6247 6.75781C24.0466 7.86719 22.3044 9.35937 20.6013 10.2031L19.9997 10.5L19.3981 10.2031C17.8825 9.46094 16.281 8.15625 15.5778 7.09375C15.1091 6.39844 14.906 5.80469 14.8669 5.03906C14.8356 4.52344 14.8591 4.33594 15.0075 3.94531C15.2341 3.32812 15.8825 2.67187 16.4841 2.4375C17.07 2.20312 17.9997 2.23437 18.5466 2.5Z" fill="#E8604C"/>
<path d="M9.88264 10.1016C9.41389 10.2578 9.24201 10.3672 8.74201 10.8281C8.49201 11.0625 8.2342 11.25 8.1717 11.25C7.97639 11.25 6.51545 12.0234 6.00764 12.3984C4.88264 13.2188 3.76545 14.4922 2.92951 15.8906C1.44514 18.3672 0.171701 22.6875 0.0232639 25.7109C-0.0236111 26.6875 -0.0236111 26.6953 0.202951 27.1094C0.507639 27.6641 0.874826 27.9141 1.84358 28.2109L2.64826 28.4609L2.22639 28.9219C1.99201 29.1719 1.69514 29.6016 1.56233 29.8828C1.12483 30.8047 1.09358 31.0859 1.09358 35.0078C1.09358 38.5 1.09358 38.5781 1.25764 38.7812L1.41389 38.9844H20.5545H39.6873L39.8436 38.8281C39.9998 38.6719 40.0076 38.6016 39.9842 34.625L39.9608 30.5859L39.7498 30.0078C39.3201 28.8281 38.4842 27.8828 37.3983 27.3594C36.8514 27.0859 33.3201 25.9922 32.4373 25.8203C32.2108 25.7734 32.0311 25.5938 32.0311 25.4062C32.0311 25.3672 32.2811 25.1797 32.578 25.0078C33.6639 24.3594 34.6717 23.1875 35.078 22.1172L35.2498 21.6562L35.742 21.625C36.1561 21.6016 36.2967 21.5547 36.5311 21.3594C37.0155 20.9688 37.1092 20.7109 37.1092 19.75C37.1092 18.8906 37.0467 18.5859 36.8045 18.3203C36.6873 18.1953 36.6483 17.9766 36.617 17.1094C36.5701 15.9375 36.4061 15.2344 36.0076 14.4297C35.1639 12.75 33.8358 11.6641 31.992 11.1641C31.4295 11.0078 31.1795 10.9922 29.5701 10.9922C27.9686 10.9922 27.703 11.0078 27.1483 11.1562C25.367 11.6406 23.9451 12.7969 23.1639 14.4141C22.7186 15.3203 22.5858 15.8984 22.5233 17.1484C22.4764 18.0781 22.4608 18.1875 22.2733 18.4297C22.0936 18.6719 22.0701 18.7812 22.0467 19.5234C22.0155 20.3984 22.0858 20.7891 22.3514 21.125C22.5858 21.4297 23.0623 21.6406 23.492 21.6406L23.867 21.6484L24.2889 22.5078C24.6483 23.2578 24.7967 23.4688 25.3436 24.0234C25.7108 24.3906 26.1951 24.7891 26.5076 24.9609C26.8436 25.1641 27.0311 25.3203 27.0311 25.4062C27.0311 25.5859 26.7576 25.8594 26.578 25.8594C26.2264 25.8594 22.1092 27.1406 21.6092 27.4062C20.992 27.7344 20.203 28.4766 19.8826 29.0156L19.6639 29.3906L19.2576 28.9297L18.8436 28.4766L19.6014 28.2266C20.5233 27.9141 20.6326 27.8516 20.9764 27.5156C21.3983 27.0938 21.5155 26.625 21.453 25.6328C21.3123 23.5078 20.6639 20.7812 19.7342 18.4062C18.3201 14.7969 16.203 12.3906 13.4998 11.3203C13.2811 11.2344 12.9139 10.9922 12.6873 10.7891C12.078 10.2344 11.6561 10.0547 10.8592 10.0234C10.453 10.0078 10.0701 10.0391 9.88264 10.1016ZM11.3983 11.4062C11.7264 11.5703 12.1483 12.0312 12.2108 12.2812C12.2498 12.4141 12.2264 12.4297 12.0467 12.3906C11.5311 12.2812 10.3123 12.25 9.81233 12.3359C9.51545 12.3906 9.25764 12.4141 9.24201 12.3906C9.21858 12.3672 9.28108 12.2188 9.37483 12.0547C9.7967 11.3359 10.703 11.0469 11.3983 11.4062ZM31.0155 12.2656C32.617 12.4766 33.9764 13.375 34.7264 14.7188C35.0311 15.2812 35.2811 16.0391 35.3514 16.6406L35.3983 17.0703L35.2576 16.8047C35.0467 16.3984 34.7811 16.3594 34.1483 16.6328C33.5311 16.8984 33.3592 16.9453 32.5623 17.0312C31.6639 17.1328 30.8436 17.0078 28.9998 16.4766C26.6405 15.7969 25.8983 15.6875 24.867 15.8672C24.2498 15.9766 24.0545 16.125 23.8905 16.6562L23.7576 17.0703L23.7967 16.6406C23.9139 15.5234 24.578 14.2109 25.3748 13.5156C26.1405 12.8359 27.0858 12.3984 28.0623 12.2734C28.7576 12.1797 30.328 12.1797 31.0155 12.2656ZM7.89045 12.8047C7.89045 12.8359 7.65608 13.0078 7.36701 13.1719C6.68733 13.5625 5.64045 14.5625 5.15608 15.2812C4.95295 15.5938 4.6717 16.125 4.5467 16.4609C4.31233 17.0703 4.06233 18.1719 4.06233 18.6094C4.06233 18.7734 3.97639 18.9453 3.7967 19.1484C3.44514 19.5312 3.33576 19.9609 3.37483 20.7812C3.42951 21.8672 3.8592 22.3984 4.75764 22.4766L5.19514 22.5156L5.57014 23.2969C5.89826 23.9844 6.03889 24.1719 6.66389 24.7969C7.12483 25.2578 7.5467 25.6016 7.83576 25.75C8.24983 25.9531 8.28108 26 8.26545 26.2109C8.24201 26.3984 8.19514 26.4531 7.96858 26.5156C7.82014 26.5547 6.92951 26.8047 5.99983 27.0781C5.06233 27.3516 4.2342 27.5781 4.15608 27.5781C3.87483 27.5781 1.5467 26.7812 1.40608 26.6406C1.21076 26.4453 1.20295 25.9844 1.36701 24.7188C1.6092 22.8906 2.06233 21.1016 2.77326 19.2109C3.86701 16.2891 5.42951 14.1875 7.37483 13.0156C7.89045 12.7031 7.89045 12.7031 7.89045 12.8047ZM14.5311 13.3047C15.6092 14.0391 16.617 15.1641 17.4608 16.6016C18.828 18.9297 19.9686 22.6953 20.1951 25.6719C20.2733 26.6641 20.2498 26.6875 18.5936 27.2109L17.3045 27.625L15.6795 27.1406C14.7889 26.875 13.8748 26.6094 13.6483 26.5625C12.9373 26.3906 12.8436 26.1484 13.3826 25.8828C14.4842 25.3438 15.5545 24.1641 16.0623 22.9297C16.2186 22.5391 16.2186 22.5391 16.6483 22.4922C17.3123 22.4219 17.7733 22.1094 17.9608 21.6172C18.0623 21.3438 18.0701 19.8438 17.9764 19.5859C17.9373 19.4766 17.7967 19.2734 17.6717 19.1328C17.4764 18.9062 17.4295 18.7578 17.3514 18.1797C17.0701 16.0703 15.9764 14.3594 14.1873 13.2422C13.8592 13.0391 13.5936 12.8438 13.5936 12.8047C13.5936 12.7109 13.8123 12.8281 14.5311 13.3047ZM11.7811 13.6406C12.617 13.8047 13.6717 14.3359 14.2811 14.8828C15.3123 15.8203 15.9139 16.9688 16.117 18.375L16.1639 18.6719H14.3201C12.2186 18.6719 11.953 18.625 10.8123 18.0859C10.0545 17.7344 9.36701 17.2969 8.6717 16.7344C8.15608 16.3125 7.84358 16.1719 7.4217 16.1719C7.07795 16.1719 6.6092 16.375 6.39045 16.6172C6.20295 16.8203 6.0467 17.2188 5.85139 18C5.69514 18.6172 5.66389 18.6719 5.49201 18.6719C5.31233 18.6719 5.30451 18.6562 5.35139 18.2969C5.52326 17.0703 6.03108 16.0703 6.94514 15.1484C7.50764 14.5859 7.74201 14.4141 8.3592 14.1094C9.50764 13.5469 10.5858 13.3984 11.7811 13.6406ZM26.5936 17.1406C26.9139 17.2031 27.7733 17.4297 28.492 17.6484C30.4842 18.2344 30.9061 18.3125 32.0701 18.3047C32.7967 18.2969 33.242 18.25 33.6483 18.1484L34.2108 18L34.2655 18.4297C34.3358 19.0078 34.242 20.4766 34.0936 21.0547C33.6873 22.6172 32.3123 23.9922 30.7342 24.4141C30.1405 24.5781 28.9998 24.5781 28.4061 24.4141C27.2576 24.1094 26.0155 23.1406 25.492 22.1484C25.0076 21.2188 24.9217 20.7656 24.9217 19.1484C24.9217 17.7109 24.9842 17.2188 25.1717 17.0938C25.328 17 25.9451 17.0234 26.5936 17.1406ZM8.08576 17.8906C9.53889 19.0156 10.7264 19.5859 12.1873 19.875C12.3748 19.9141 12.3826 19.9375 12.3592 20.4297C12.3201 21.1328 12.3748 21.3125 12.6873 21.4531C12.9139 21.5625 12.9764 21.5703 13.1717 21.4766C13.5076 21.3125 13.6092 21.0547 13.5701 20.4453L13.5389 19.9219H14.3826H15.2342V20.6016C15.2342 21.9609 14.8045 23.0078 13.867 23.9453C12.992 24.8203 11.9217 25.2656 10.703 25.2578C9.46076 25.2422 8.49983 24.8281 7.57795 23.9141C6.62483 22.9688 6.24983 22.0547 6.24983 20.6484C6.24983 19.8594 6.24983 19.8516 6.47639 19.6953C6.7342 19.5078 6.7967 19.375 7.07014 18.3203C7.2967 17.4922 7.32014 17.4219 7.41389 17.4219C7.44514 17.4219 7.74201 17.6328 8.08576 17.8906ZM29.5701 25.8203C29.742 25.8203 30.0858 25.7969 30.3358 25.7812L30.7967 25.7422L30.8983 26.0391C31.0155 26.375 31.0389 26.3672 30.117 26.4766C29.5545 26.5469 29.3514 26.5312 28.5467 26.3984L28.0701 26.3125L28.1561 26.0078L28.2342 25.7031L28.7498 25.7578C29.0311 25.7969 29.3983 25.8203 29.5701 25.8203ZM10.4295 26.5156C10.6483 26.5391 11.0389 26.5312 11.3045 26.5L11.7811 26.4375L11.867 26.7344C11.992 27.1406 12.4217 27.5547 12.828 27.6562C13.7655 27.8828 17.0233 28.8594 17.3358 29.0078C17.828 29.2344 18.5233 29.9453 18.7733 30.4844C19.0858 31.1484 19.1405 31.7344 19.1405 34.8594V37.7344H18.3592H17.5858L17.5623 34.7812C17.5389 31.4531 17.5701 31.6484 16.8826 30.9766C16.0936 30.2031 15.1873 29.8438 14.0623 29.8438C12.9608 29.8438 11.8905 30.2812 11.2108 31.0156C10.7967 31.4609 10.7655 31.4531 10.1951 30.9453C9.32014 30.1719 8.49201 29.8438 7.38264 29.8438C5.99983 29.8438 4.71076 30.5078 4.14045 31.5156C3.9217 31.8906 3.90608 31.9688 3.90608 32.75C3.90608 33.4922 3.9217 33.6094 4.06233 33.75C4.2967 33.9844 4.71076 33.9844 4.96076 33.7422C5.08576 33.6172 5.12483 33.4609 5.14045 32.8984C5.1717 32.2109 5.1717 32.1953 5.46858 31.8906C5.63264 31.7188 5.97639 31.4766 6.22639 31.3594C6.62483 31.1641 6.76545 31.1328 7.38264 31.1328C7.99201 31.1328 8.14045 31.1641 8.51545 31.3438C8.74983 31.4609 9.16389 31.7578 9.43733 32C10.367 32.8359 11.0936 32.8438 11.9998 32.0156C12.6951 31.3906 13.2264 31.1484 13.9842 31.1094C14.7576 31.0703 15.3123 31.2734 15.8983 31.8125L16.328 32.2031V34.9688V37.7344H10.7498H5.1717L5.14045 36.7578C5.11701 35.9062 5.09358 35.7656 4.96076 35.6328C4.71076 35.3906 4.2967 35.3906 4.06233 35.625C3.9217 35.7656 3.90608 35.8828 3.90608 36.7578V37.7344H3.12483H2.34358V34.625C2.34358 31.3281 2.36701 31.1094 2.74201 30.3594C2.96858 29.9062 3.71076 29.1797 4.15608 28.9844C4.53108 28.8203 7.99983 27.7812 8.46076 27.7031C8.94514 27.6172 9.53108 26.9922 9.53108 26.5625C9.53108 26.4219 9.57014 26.4062 9.78889 26.4375C9.9217 26.4609 10.2186 26.4922 10.4295 26.5156ZM28.328 27.6484L28.9686 27.7812L28.3905 28.3125C28.0076 28.6562 27.7967 28.8047 27.7733 28.7344C27.7498 28.6797 27.6483 28.3594 27.5467 28.0234C27.3592 27.4219 27.3592 27.4141 27.5155 27.4688C27.6092 27.4922 27.9686 27.5781 28.328 27.6484ZM31.5936 28.0234C31.492 28.3594 31.4061 28.6562 31.4061 28.6875C31.4061 28.8438 31.1639 28.6953 30.6717 28.2422C30.1561 27.75 30.1483 27.7344 30.3592 27.7266C30.4842 27.7266 30.8358 27.6562 31.1326 27.5781C31.4373 27.5 31.703 27.4375 31.7342 27.4297C31.7576 27.4297 31.703 27.6953 31.5936 28.0234ZM24.7576 28.1797C24.578 28.5156 24.3826 28.875 24.3201 28.9844C24.0623 29.4844 24.0701 29.5078 26.6092 33.4375C27.9217 35.4766 29.0858 37.2266 29.1873 37.3203C29.4373 37.5469 29.703 37.5469 29.953 37.3203C30.0623 37.2266 31.2264 35.4844 32.5389 33.4453C35.3201 29.125 35.1639 29.5312 34.492 28.3594C34.2576 27.9531 34.078 27.6172 34.0858 27.6016C34.1405 27.5547 36.4842 28.3047 36.8592 28.4922C37.6561 28.8906 38.2889 29.6406 38.5936 30.5391C38.742 30.9844 38.7498 31.1953 38.7498 34.375V37.7344H37.6951H36.6405V34.9688C36.6405 32.1641 36.617 31.875 36.3436 31.6719C36.1405 31.5156 35.7733 31.5391 35.5701 31.7344L35.3905 31.8984V34.8203V37.7344H29.5311H23.6717V36.7891C23.6717 36.2734 23.6405 35.7812 23.5936 35.7031C23.4764 35.4844 23.117 35.3906 22.8358 35.5078C22.5155 35.6484 22.4217 35.9531 22.4217 36.9219V37.7344H21.4061H20.3826L20.4061 34.2344L20.4295 30.7344L20.7264 30.1406C21.0701 29.4375 21.6717 28.7969 22.2733 28.4922C22.6092 28.3281 24.7342 27.625 25.0233 27.5859C25.0623 27.5781 24.9451 27.8516 24.7576 28.1797ZM26.9295 30.3281C27.2811 31.5 27.5623 32.4609 27.5467 32.4766C27.5233 32.5 25.6248 29.6016 25.5623 29.4453C25.5311 29.3828 26.1873 28.2031 26.2498 28.2031C26.2733 28.2031 26.578 29.1562 26.9295 30.3281ZM33.4451 29.1016L33.617 29.4219L32.617 30.9766C32.0623 31.8359 31.5858 32.5703 31.5623 32.6016C31.5076 32.6641 32.703 28.6719 32.8436 28.3047C32.8905 28.1875 32.9295 28.2109 33.0936 28.4766C33.1951 28.6484 33.3514 28.9297 33.4451 29.1016ZM29.7186 31.2266C29.742 31.3516 29.8123 31.8594 29.8826 32.3594L30.0076 33.2734L29.7889 33.9844L29.578 34.6953L29.3592 33.9766L29.1405 33.2656L29.2967 32.1641C29.3826 31.5547 29.453 31.0469 29.453 31.0391C29.453 31.0234 29.4998 31.0156 29.5623 31.0156C29.6248 31.0156 29.6951 31.1094 29.7186 31.2266Z" fill="#E8604C"/>
<path d="M26.875 18.9062C26.6719 19.1093 26.6172 19.3672 26.6563 19.8906C26.7032 20.4765 26.9141 20.6718 27.4453 20.6328C27.5157 20.6328 27.6485 20.5547 27.7344 20.4687C27.8672 20.3359 27.8907 20.2109 27.8907 19.6953C27.8907 19.1172 27.875 19.0625 27.6875 18.914C27.4219 18.7109 27.0782 18.7031 26.875 18.9062Z" fill="#E8604C"/>
<path d="M31.4531 18.9141C31.2656 19.0625 31.25 19.1172 31.25 19.6562C31.25 19.9844 31.2812 20.3125 31.3281 20.3906C31.4297 20.5859 31.8359 20.7109 32.0703 20.625C32.4062 20.5 32.5234 20.2187 32.4844 19.6016C32.4609 19.1328 32.4219 19.0234 32.2734 18.8984C32.0391 18.7031 31.7109 18.7109 31.4531 18.9141Z" fill="#E8604C"/>
<path d="M27.9062 22.1563C27.7734 22.25 27.7344 22.3516 27.7344 22.6094C27.7344 22.9063 27.7734 22.9844 28.0547 23.2422C28.5234 23.6641 28.8438 23.7813 29.5703 23.7813C30.1016 23.7891 30.2578 23.7578 30.625 23.5703C31.1719 23.2969 31.5156 22.8672 31.4531 22.5391C31.3438 22 30.8047 21.875 30.2969 22.2813C30.0312 22.5 29.9219 22.5391 29.5781 22.5391C29.2344 22.5391 29.125 22.5 28.8672 22.2813C28.5234 22 28.1875 21.9531 27.9062 22.1563Z" fill="#E8604C"/>
<path d="M8.28906 19.6953C8.1875 19.7344 8.05469 19.8281 8 19.9063C7.85938 20.086 7.85938 21.086 8 21.2656C8.26562 21.6172 8.88281 21.5781 9.05469 21.2031C9.10156 21.0938 9.14062 20.8203 9.14062 20.586C9.14062 20.0469 9.02344 19.7969 8.72656 19.6875C8.60156 19.6485 8.49219 19.6094 8.48438 19.6172C8.47656 19.6172 8.39062 19.6563 8.28906 19.6953Z" fill="#E8604C"/>
<path d="M9.07812 22.9922C8.96875 23.1016 8.90625 23.2734 8.90625 23.4375C8.90625 23.7969 9.4375 24.3047 9.96875 24.4609C11.0938 24.7812 12.4219 24.2891 12.5547 23.4922C12.5859 23.2656 12.5625 23.1797 12.3984 23.0156C12.125 22.7422 11.8125 22.75 11.4453 23.0469C10.9453 23.4453 10.4922 23.4297 9.98438 23.0078C9.6875 22.7578 9.30469 22.75 9.07812 22.9922Z" fill="#E8604C"/>
<path d="M22.6716 31.7188C22.4607 31.9219 22.3903 32.2891 22.4372 33.0234C22.4685 33.4609 22.5153 33.6406 22.6247 33.75C22.8669 33.9844 23.281 33.9844 23.5153 33.75C23.656 33.6094 23.6716 33.4922 23.6716 32.75C23.6716 31.9688 23.656 31.8906 23.4919 31.7344C23.2653 31.5156 22.8982 31.5156 22.6716 31.7188Z" fill="#E8604C"/>
</g>
<defs>
<clipPath id="clip0_260_877">
<rect width="40" height="40" fill="white"/>
</clipPath>
</defs>
</svg>
