<svg width="20" height="20" viewBox="0 0 20 20" fill="none" xmlns="http://www.w3.org/2000/svg">
<g clip-path="url(#clip0_1246_11562)">
<path d="M0.0244649 14.1199C0.0713186 15.1826 0.243166 15.9132 0.489338 16.5463C0.743293 17.2182 1.13399 17.8199 1.64587 18.32C2.146 18.8279 2.75159 19.2226 3.41578 19.4726C4.0525 19.7187 4.77926 19.8906 5.84194 19.9374C6.91255 19.9882 7.25242 20 9.96779 20C12.6832 20 13.023 19.9882 14.0897 19.9414C15.1524 19.8945 15.8829 19.7225 16.5158 19.4765C17.188 19.2226 17.7896 18.8319 18.2897 18.32C18.7976 17.8199 19.1921 17.2143 19.4423 16.5501C19.6885 15.9132 19.8603 15.1866 19.9072 14.1239C19.958 13.0533 19.9697 12.7134 19.9697 9.99805C19.9697 7.28267 19.958 6.94279 19.9111 5.87615C19.8643 4.81347 19.6923 4.08289 19.4461 3.44983C19.1921 2.77785 18.7976 2.17624 18.2897 1.67611C17.7896 1.1682 17.184 0.773527 16.5198 0.523539C15.8829 0.277367 15.1563 0.105519 14.0935 0.0586656C13.027 0.0116595 12.687 6.05397e-05 9.97161 6.07771e-05C7.25624 6.10145e-05 6.91636 0.01166 5.84972 0.0586663C4.78704 0.10552 4.05646 0.277368 3.42356 0.52354C2.07946 1.0432 1.01678 2.10588 0.49712 3.44983C0.251101 4.08671 0.0791011 4.81347 0.0322477 5.87615C-0.0146058 6.94279 -0.0263573 7.28267 -0.026357 9.99805C-0.0263568 12.7134 -0.0223887 13.0533 0.0244649 14.1199ZM1.8255 5.95429C1.86854 4.97754 2.0326 4.45009 2.16935 4.09846C2.50541 3.22716 3.19692 2.53565 4.06821 2.19959C4.41984 2.06284 4.95111 1.89878 5.92404 1.85589C6.97893 1.80889 7.29531 1.79729 9.96382 1.79729C12.6323 1.79729 12.9527 1.80889 14.0038 1.85589C14.9805 1.89878 15.508 2.06284 15.8596 2.19959C16.2932 2.35984 16.6878 2.61379 17.0082 2.94589C17.3403 3.2702 17.5942 3.6609 17.7545 4.09449C17.8912 4.44612 18.0553 4.97753 18.0982 5.95032C18.1452 7.00521 18.1568 7.32174 18.1568 9.99026C18.1568 12.6588 18.1452 12.9791 18.0982 14.0301C18.0553 15.0068 17.8912 15.5343 17.7545 15.8859C17.5942 16.3196 17.3403 16.7141 17.0042 17.0346C16.6801 17.3667 16.2894 17.6207 15.8556 17.7808C15.504 17.9175 14.9726 18.0816 13.9998 18.1246C12.9449 18.1715 12.6284 18.1832 9.96001 18.1832C7.28753 18.1832 6.97115 18.1715 5.92007 18.1246C4.94332 18.0816 4.41588 17.9175 4.06425 17.7808C3.63066 17.6207 3.23599 17.3667 2.91565 17.0346C2.58355 16.7103 2.3296 16.3196 2.16935 15.8859C2.0326 15.5343 1.86854 15.003 1.8255 14.0301C1.77865 12.9752 1.7669 12.6588 1.7669 9.99026C1.7669 7.32174 1.77865 7.00918 1.8255 5.95429Z" fill="#030415"/>
<path d="M9.96262 15.1353C12.799 15.1353 15.1003 12.8341 15.1003 9.99753C15.1003 7.16098 12.799 4.85981 9.96262 4.85981C7.12607 4.85981 4.8249 7.16098 4.8249 9.99753C4.8249 12.8341 7.12607 15.1353 9.96262 15.1353ZM9.96262 6.66482C11.8027 6.66482 13.2953 8.15727 13.2953 9.99753C13.2953 11.8378 11.8027 13.3302 9.96262 13.3302C8.12236 13.3302 6.62991 11.8378 6.62991 9.99753C6.62991 8.15727 8.12236 6.66482 9.96262 6.66482V6.66482Z" fill="#030415"/>
<path d="M3.42227 15.3382C3.42227 14.6758 3.95934 14.1387 4.62186 14.1387C5.28422 14.1387 5.82129 14.6758 5.82129 15.3382C5.82129 16.0007 5.28422 16.5376 4.62186 16.5376C3.95934 16.5376 3.42227 16.0007 3.42227 15.3382V15.3382Z" fill="current"/>
</g>
<defs>
<clipPath id="clip0_1246_11562">
<rect x="20" y="20" width="20" height="20" transform="rotate(180 20 20)" fill="white"/>
</clipPath>
</defs>
</svg>
