<svg width="20" height="20" viewBox="0 0 20 20" fill="none" xmlns="http://www.w3.org/2000/svg">
<path d="M17.1834 7.25002C16.3167 3.39169 12.95 1.66669 10 1.66669C10 1.66669 10 1.66669 9.9917 1.66669C7.05004 1.66669 3.6917 3.39169 2.8167 7.24169C1.83337 11.5417 4.4667 15.1834 6.85004 17.4834C7.73337 18.3334 8.8667 18.7584 10 18.7584C11.1334 18.7584 12.2667 18.3334 13.1417 17.4834C15.525 15.1834 18.1584 11.55 17.1834 7.25002Z" fill="currentColor"/>
<path d="M12.2917 8.54167H10.625V6.875C10.625 6.53333 10.3417 6.25 10 6.25C9.65837 6.25 9.37504 6.53333 9.37504 6.875V8.54167H7.70837C7.36671 8.54167 7.08337 8.825 7.08337 9.16667C7.08337 9.50833 7.36671 9.79167 7.70837 9.79167H9.37504V11.4583C9.37504 11.8 9.65837 12.0833 10 12.0833C10.3417 12.0833 10.625 11.8 10.625 11.4583V9.79167H12.2917C12.6334 9.79167 12.9167 9.50833 12.9167 9.16667C12.9167 8.825 12.6334 8.54167 12.2917 8.54167Z" fill="white"/>
</svg>
