<svg width="17" height="15" viewBox="0 0 17 15" fill="none" xmlns="http://www.w3.org/2000/svg">
<path d="M16.2188 0.96875H0.78125C0.452832 0.96875 0.1875 1.23408 0.1875 1.5625V13.4375C0.1875 13.7659 0.452832 14.0312 0.78125 14.0312H16.2188C16.5472 14.0312 16.8125 13.7659 16.8125 13.4375V1.5625C16.8125 1.23408 16.5472 0.96875 16.2188 0.96875ZM15.4766 3.02461V12.6953H1.52344V3.02461L1.01133 2.62568L1.74053 1.68867L2.53467 2.30654H14.4672L15.2613 1.68867L15.9905 2.62568L15.4766 3.02461V3.02461ZM14.4672 2.30469L8.5 6.94336L2.53281 2.30469L1.73867 1.68682L1.00947 2.62383L1.52158 3.02275L7.85986 7.95088C8.04214 8.09249 8.26639 8.16936 8.49722 8.16936C8.72804 8.16936 8.95229 8.09249 9.13457 7.95088L15.4766 3.02461L15.9887 2.62568L15.2595 1.68867L14.4672 2.30469Z" fill="#EBEBEB"/>
</svg>
