<svg width="20" height="20" viewBox="0 0 20 20" fill="none" xmlns="http://www.w3.org/2000/svg">
<path d="M18.3084 15.2748C18.3084 15.5748 18.2417 15.8832 18.1001 16.1832C17.9584 16.4832 17.7751 16.7665 17.5334 17.0332C17.1251 17.4832 16.6751 17.8082 16.1667 18.0165C15.6667 18.2248 15.1251 18.3332 14.5417 18.3332C13.6917 18.3332 12.7834 18.1332 11.8251 17.7248C10.8667 17.3165 9.90842 16.7665 8.95842 16.0748C8.00008 15.3748 7.09175 14.5998 6.22508 13.7415C5.36675 12.8748 4.59175 11.9665 3.90008 11.0165C3.21675 10.0665 2.66675 9.1165 2.26675 8.17484C1.86675 7.22484 1.66675 6.3165 1.66675 5.44984C1.66675 4.88317 1.76675 4.3415 1.96675 3.8415C2.16675 3.33317 2.48341 2.8665 2.92508 2.44984C3.45841 1.92484 4.04175 1.6665 4.65841 1.6665C4.89175 1.6665 5.12508 1.7165 5.33341 1.8165C5.55008 1.9165 5.74175 2.0665 5.89175 2.28317L7.82508 5.00817C7.97508 5.2165 8.08341 5.40817 8.15841 5.5915C8.23341 5.7665 8.27508 5.9415 8.27508 6.09984C8.27508 6.29984 8.21675 6.49984 8.10008 6.6915C7.99175 6.88317 7.83341 7.08317 7.63341 7.28317L7.00008 7.9415C6.90841 8.03317 6.86675 8.1415 6.86675 8.27484C6.86675 8.3415 6.87508 8.39984 6.89175 8.4665C6.91675 8.53317 6.94175 8.58317 6.95842 8.63317C7.10842 8.90817 7.36675 9.2665 7.73341 9.69984C8.10841 10.1332 8.50841 10.5748 8.94175 11.0165C9.39175 11.4582 9.82508 11.8665 10.2667 12.2415C10.7001 12.6082 11.0584 12.8582 11.3417 13.0082C11.3834 13.0248 11.4334 13.0498 11.4917 13.0748C11.5584 13.0998 11.6251 13.1082 11.7001 13.1082C11.8417 13.1082 11.9501 13.0582 12.0417 12.9665L12.6751 12.3415C12.8834 12.1332 13.0834 11.9748 13.2751 11.8748C13.4667 11.7582 13.6584 11.6998 13.8667 11.6998C14.0251 11.6998 14.1917 11.7332 14.3751 11.8082C14.5584 11.8832 14.7501 11.9915 14.9584 12.1332L17.7167 14.0915C17.9334 14.2415 18.0834 14.4165 18.1751 14.6248C18.2584 14.8332 18.3084 15.0415 18.3084 15.2748Z" stroke="currentColor" stroke-width="1.5" stroke-miterlimit="10"/>
<path d="M13.5251 6.4749L16.4751 3.5249" stroke="currentColor" stroke-width="1.5" stroke-linecap="round" stroke-linejoin="round"/>
<path d="M16.4751 6.4749L13.5251 3.5249" stroke="currentColor" stroke-width="1.5" stroke-linecap="round" stroke-linejoin="round"/>
</svg>
