<svg width="16" height="16" viewBox="0 0 16 16" fill="none" xmlns="http://www.w3.org/2000/svg">
<path d="M8.10671 7.24671C8.04004 7.24004 7.96004 7.24004 7.88671 7.24671C6.30004 7.19337 5.04004 5.89337 5.04004 4.29337C5.04004 2.66004 6.36004 1.33337 8.00004 1.33337C9.63337 1.33337 10.96 2.66004 10.96 4.29337C10.9534 5.89337 9.69337 7.19337 8.10671 7.24671Z" stroke="#E8604C" stroke-width="1.2" stroke-linecap="round" stroke-linejoin="round"/>
<path d="M4.77335 9.70663C3.16002 10.7866 3.16002 12.5466 4.77335 13.62C6.60669 14.8466 9.61335 14.8466 11.4467 13.62C13.06 12.54 13.06 10.78 11.4467 9.70663C9.62002 8.48663 6.61335 8.48663 4.77335 9.70663Z" stroke="#E8604C" stroke-width="1.2" stroke-linecap="round" stroke-linejoin="round"/>
</svg>
