<svg width="20" height="20" viewBox="0 0 20 20" fill="none" xmlns="http://www.w3.org/2000/svg">
<path d="M6.51589 17.5097C13.5917 17.5097 17.4612 11.6476 17.4612 6.56441C17.4612 6.39792 17.4578 6.23211 17.4503 6.06723C18.2014 5.52417 18.8542 4.84651 19.3692 4.07516C18.68 4.38166 17.9381 4.58771 17.1601 4.68093C17.9543 4.2045 18.5641 3.45115 18.8516 2.5531C18.1084 2.99376 17.2852 3.3139 16.4089 3.48681C15.707 2.73909 14.7074 2.27148 13.6008 2.27148C11.4765 2.27148 9.75368 3.9942 9.75368 6.11779C9.75368 6.41982 9.78751 6.71336 9.85344 6.99498C6.65624 6.8341 3.82104 5.30344 1.92391 2.97575C1.59368 3.54415 1.4031 4.20461 1.4031 4.90934C1.4031 6.24381 2.08226 7.42222 3.11493 8.11135C2.48382 8.09197 1.891 7.91871 1.37272 7.63033C1.37214 7.6465 1.37214 7.66221 1.37214 7.67941C1.37214 9.54248 2.69813 11.098 4.45858 11.4505C4.13522 11.5384 3.79501 11.5858 3.44414 11.5858C3.19669 11.5858 2.95544 11.5615 2.72106 11.5164C3.21079 13.0449 4.63103 14.1572 6.31477 14.1883C4.99807 15.2203 3.33945 15.835 1.5368 15.835C1.22675 15.835 0.92025 15.8173 0.619141 15.7817C2.32168 16.873 4.34334 17.5098 6.51601 17.5098" fill="currentColor"/>
</svg>
