<?xml version="1.0" encoding="utf-8"?>
<!-- Generator: Adobe Illustrator 24.2.3, SVG Export Plug-In . SVG Version: 6.00 Build 0)  -->
<svg version="1.1" id="Layer_1" xmlns="http://www.w3.org/2000/svg" xmlns:xlink="http://www.w3.org/1999/xlink" x="0px" y="0px"
	 viewBox="0 0 438.4 104.6" style="enable-background:new 0 0 438.4 104.6;" xml:space="preserve">
<style type="text/css">
	.st0{fill:#231F20;}
</style>
<g>
	<g>
		<g>
			<g>
				<g>
					<path class="st0" d="M0,0h21.8v55.7l25.5-27.9h26.1L44.1,58l30.2,46.6H49.4L29.4,73.2l-7.6,8v23.4H0V0z"/>
					<path class="st0" d="M159.7,82.8v21.8H82.9V82.8H159.7z"/>
					<path class="st0" d="M200.1,0h21.8v104.6h-21.8V0z"/>
					<path class="st0" d="M235.6,0h21.8v104.6h-21.8V0z"/>
					<path class="st0" d="M266.3,66.6v-0.3c0-21.9,15.6-40,38-40c25.6,0,37.4,19.9,37.4,41.7c0,1.7-0.1,3.7-0.3,5.7h-53.4
						c2.1,9.9,9,15,18.8,15c7.3,0,12.6-2.3,18.6-7.9l12.5,11c-7.2,8.9-17.5,14.3-31.4,14.3C283.4,106.3,266.3,90.1,266.3,66.6z
						 M320.5,60.2c-1.3-9.7-7-16.3-16.2-16.3c-9,0-14.9,6.4-16.6,16.3H320.5z"/>
					<path class="st0" d="M350,27.8h21.8v15.5c4.4-10.6,11.6-17.5,24.5-16.9v22.8h-1.1c-14.5,0-23.4,8.7-23.4,27.1v28.4H350V27.8z"
						/>
				</g>
				
					<ellipse transform="matrix(0.2287 -0.9735 0.9735 0.2287 46.8853 246.6007)" class="st0" cx="179.1" cy="93.7" rx="10.9" ry="10.9"/>
			</g>
		</g>
	</g>
	<g>
		<path class="st0" d="M427.8,106.3L427.8,106.3c-6,0-10.8-4.5-10.8-10.8c0-3.9,1.3-6.3,3.5-8.2l3.8,3.6c-1.4,1.3-2.3,2.6-2.3,4.7
			c0,2.9,2.6,5,5.6,5h0.1c3.1,0,5.7-2,5.7-5.2c0-2-0.8-3.3-2.2-4.7l3.5-3.4c2.2,2,3.8,4.3,3.8,8.4
			C438.4,101.8,433.7,106.3,427.8,106.3z"/>
		<path class="st0" d="M409.9,85.2v-5.8h28v5.8H409.9z"/>
		<path class="st0" d="M417.4,75.7v-5.8H438v5.8H417.4z"/>
		<path class="st0" d="M427.8,67.5L427.8,67.5c-6,0-10.8-4.5-10.8-10.8c0-3.9,1.3-6.3,3.5-8.2l3.8,3.6c-1.4,1.3-2.3,2.6-2.3,4.7
			c0,2.9,2.6,5,5.6,5h0.1c3.1,0,5.7-2,5.7-5.2c0-2-0.8-3.3-2.2-4.7l3.5-3.4c2.2,2,3.8,4.3,3.8,8.4C438.4,63,433.7,67.5,427.8,67.5z"
			/>
		<path class="st0" d="M409.9,46.7v-5.8h14.9l-7.5-6.8v-7l8.1,7.8l12.5-8.1v6.7l-8.4,5.4l2.2,2h6.3v5.8H409.9z"/>
		<path class="st0" d="M412.2,69.9c1.6,0,2.9,1.3,2.9,2.9c0,1.6-1.3,2.9-2.9,2.9c-1.6,0-2.9-1.3-2.9-2.9
			C409.3,71.2,410.6,69.9,412.2,69.9z"/>
	</g>
</g>
</svg>
