<?xml version="1.0" encoding="utf-8"?>
<!-- Generator: Adobe Illustrator 24.2.3, SVG Export Plug-In . SVG Version: 6.00 Build 0)  -->
<svg version="1.1" id="Layer_1" xmlns="http://www.w3.org/2000/svg" xmlns:xlink="http://www.w3.org/1999/xlink" x="0px" y="0px"
	 viewBox="0 0 64 64" style="enable-background:new 0 0 64 64;" xml:space="preserve">
<style type="text/css">
	.st0{opacity:0.2;}
	.st1{fill:url(#SVGID_1_);}
	.st2{fill:url(#SVGID_2_);}
	.st3{fill-rule:evenodd;clip-rule:evenodd;fill:#FFFFFF;}
</style>
<g>
	<g transform="matrix(1 0 0 -1 -542.696 1013.504)">
		<g>
			<path id="e_22_" d="M543.5,981.7c0-5.5,1.4-11,4.2-15.7l-4.5-16.3l16.6,4.4c4.6-2.5,9.7-3.8,15-3.8h0c17.3,0,31.4,14.1,31.4,31.4
				c0,8.4-3.3,16.3-9.2,22.2c-5.9,5.9-13.8,9.2-22.2,9.2C557.5,1013.1,543.5,999,543.5,981.7z"/>
		</g>
		<g>
			<g id="e_21_">
				<path class="st0" d="M543.5,981.7c0-5.5,1.4-11,4.2-15.7l-4.5-16.3l16.6,4.4c4.6-2.5,9.7-3.8,15-3.8h0
					c17.3,0,31.4,14.1,31.4,31.4c0,8.4-3.3,16.3-9.2,22.2c-5.9,5.9-13.8,9.2-22.2,9.2C557.5,1013.1,543.5,999,543.5,981.7z"/>
			</g>
		</g>
	</g>
	
		<linearGradient id="SVGID_1_" gradientUnits="userSpaceOnUse" x1="-251.3235" y1="38.3994" x2="-251.3235" y2="-32.9609" gradientTransform="matrix(0.8515 0 0 0.8553 246.022 29.4492)">
		<stop  offset="0" style="stop-color:#20B038"/>
		<stop  offset="1" style="stop-color:#60D66A"/>
	</linearGradient>
	<path class="st1" d="M1.9,31.5c0,5.3,1.4,10.5,4,15.1L1.6,62.3l16-4.2c4.4,2.4,9.4,3.7,14.5,3.7h0c16.7,0,30.2-13.6,30.3-30.2
		c0-8.1-3.1-15.7-8.9-21.4c-5.7-5.7-13.3-8.9-21.4-8.9C15.5,1.3,1.9,14.8,1.9,31.5"/>
	
		<linearGradient id="SVGID_2_" gradientUnits="userSpaceOnUse" x1="-241.6339" y1="30.3639" x2="-241.6339" y2="-43.5562" gradientTransform="matrix(0.8515 0 0 0.8553 237.7755 37.4165)">
		<stop  offset="0" style="stop-color:#F9F9F9"/>
		<stop  offset="1" style="stop-color:#FFFFFF"/>
	</linearGradient>
	<path class="st2" d="M0.8,31.5C0.8,37,2.2,42.4,5,47.2L0.5,63.4L17.2,59c4.6,2.5,9.7,3.8,15,3.8h0c17.3,0,31.3-14.1,31.3-31.3
		c0-8.4-3.3-16.2-9.2-22.2c-5.9-5.9-13.8-9.2-22.2-9.2C14.9,0.2,0.8,14.2,0.8,31.5L0.8,31.5z M10.7,46.3l-0.6-1
		c-2.6-4.1-4-8.9-4-13.9c0-14.4,11.7-26,26.1-26c7,0,13.5,2.7,18.4,7.6c4.9,4.9,7.6,11.5,7.6,18.4c0,14.4-11.7,26-26,26h0
		c-4.7,0-9.3-1.3-13.3-3.6l-1-0.6l-9.9,2.6L10.7,46.3z"/>
	<path class="st3" d="M24.3,18.4c-0.6-1.3-1.2-1.3-1.8-1.4c-0.5,0-1,0-1.5,0c-0.5,0-1.4,0.2-2.1,1c-0.7,0.8-2.7,2.7-2.7,6.5
		c0,3.9,2.8,7.6,3.2,8.1c0.4,0.5,5.4,8.7,13.4,11.8c6.6,2.6,8,2.1,9.4,2c1.4-0.1,4.6-1.9,5.3-3.7c0.7-1.8,0.7-3.4,0.5-3.7
		c-0.2-0.3-0.7-0.5-1.5-0.9c-0.8-0.4-4.6-2.3-5.4-2.5c-0.7-0.3-1.2-0.4-1.8,0.4c-0.5,0.8-2,2.5-2.5,3.1c-0.5,0.5-0.9,0.6-1.7,0.2
		c-0.8-0.4-3.3-1.2-6.3-3.9c-2.3-2.1-3.9-4.6-4.4-5.4c-0.5-0.8,0-1.2,0.3-1.6c0.4-0.4,0.8-0.9,1.2-1.4c0.4-0.5,0.5-0.8,0.8-1.3
		c0.3-0.5,0.1-1-0.1-1.4C26.5,23.8,25,19.9,24.3,18.4"/>
</g>
</svg>
